<?xml version="1.0" standalone="no"?>
<!DOCTYPE svg PUBLIC "-//W3C//DTD SVG 20010904//EN"
 "http://www.w3.org/TR/2001/REC-SVG-20010904/DTD/svg10.dtd">
<svg version="1.0" xmlns="http://www.w3.org/2000/svg"
 width="299.000000pt" height="299.000000pt" viewBox="0 0 299.000000 299.000000"
 preserveAspectRatio="xMidYMid meet">
<metadata>
Created by potrace 1.14, written by Peter Selinger 2001-2017
</metadata>
<g transform="translate(0.000000,299.000000) scale(0.100000,-0.100000)"
fill="#000000" stroke="none">
<path d="M0 1495 l0 -1495 1495 0 1495 0 0 1495 0 1495 -1495 0 -1495 0 0
-1495z m2420 968 c31 -21 51 -48 67 -88 8 -22 12 -260 12 -905 1 -833 0 -877
-18 -916 -10 -23 -34 -52 -52 -65 l-34 -24 -906 -3 -906 -2 -33 22 c-18 13
-43 36 -54 51 -21 28 -21 32 -24 988 l-2 959 963 0 c889 0 964 -1 987 -17z"/>
<path d="M931 2127 c-129 -65 -187 -217 -132 -342 32 -72 62 -107 121 -139 94
-51 215 -40 303 27 18 14 46 49 62 78 26 47 30 64 29 134 0 90 -18 138 -75
193 -54 53 -105 72 -190 72 -57 0 -84 -6 -118 -23z"/>
<path d="M1835 2128 c-209 -107 -206 -384 4 -493 55 -28 180 -22 242 11 58 32
79 54 113 118 34 65 36 166 5 229 -36 71 -57 95 -113 126 -47 28 -62 31 -132
31 -60 -1 -89 -6 -119 -22z"/>
</g>
</svg>
